# xmcd
#
# Track frame offsets: 
#        150
#        11272
#        24520
#        36265
#        47942
#        60047
#        72252
#        83912
#        97330
#        109020
#        117862
#        130205
#        142452
#        153050
#        164817
#
# Disc length: 2352 seconds
#
# Revision: 3
# Processed by: cddbd v1.5.2PL0 Copyright (c) Steve Scherf et al.
# Submitted via: ExactAudioCopy v1.0b4
#
DISCID=cc092e0f
DTITLE=Various Artist - Living The Blues-Blues Classics 1957-1959
DYEAR=1997
DGENRE=Blues
TTITLE0=Wilbert Harrison - Kansas City
TTITLE1=Magic Sam - All Your Love
TTITLE2=Ann Cole - Got My Mojo Working
TTITLE3=John Lee Hooker - I Love You Honey
TTITLE4=Little Junior Parker - Barefoot Rock
TTITLE5=Larry Davis - Texas Flood
TTITLE6=Ivory Joe Hunter - Love's A Hurting Game
TTITLE7=Buster Brown - Fanny Mae
TTITLE8=5 Royales - Think
TTITLE9=Joe Turner - Love Roller Coaster
TTITLE10=Annie Laurie - It Hurts To Be In Love
TTITLE11=Little Willie John - Talk To Me Talk To Me
TTITLE12=Teddy Humphries - What Makes You So Tough
TTITLE13=LaVern Baker - I Cried A Tear
TTITLE14=Chuck Willis - C. C. Rider
EXTD=
EXTT0=
EXTT1=
EXTT2=
EXTT3=
EXTT4=
EXTT5=
EXTT6=
EXTT7=
EXTT8=
EXTT9=
EXTT10=
EXTT11=
EXTT12=
EXTT13=
EXTT14=
PLAYORDER=
